<?xml version="1.0" encoding="utf-8"?>
<!-- Generator: Adobe Illustrator 27.8.1, SVG Export Plug-In . SVG Version: 6.00 Build 0)  -->
<svg version="1.1" id="Layer_1" xmlns="http://www.w3.org/2000/svg" xmlns:xlink="http://www.w3.org/1999/xlink" x="0px" y="0px"
	 viewBox="0 0 180 180" style="enable-background:new 0 0 180 180;" xml:space="preserve">
<style type="text/css">
	.st0{fill:#F7F0E7;}
</style>
<path class="st0" d="M141.4,75c-3.4-10.4-16.3-30-27.8-39.7c-18.6-15.6-24.8-13.5-39-3.2c-14,10.1-26,30.6-30.7,41.9
	c-4.5,10.8-6.4,16.4-0.6,24.5c5.6,7.8,14.7,17.3,28.7,29.6c-0.9,2.2-0.4,4.8,1.4,6.5l2.5,2.4v7.2h-0.1c-1.4,0-2.5,1.1-2.5,2.5v5.4
	c0,1.4,1.1,2.5,2.5,2.5h29.6c1.4,0,2.5-1.1,2.5-2.5v-5.4c0-1.3-1-2.4-2.3-2.5v-7.1l2.5-2.4c1.1-1.1,1.8-2.6,1.8-4.2
	c0-0.4,0-0.8-0.1-1.2L138,99.4C143.7,93.4,144.8,85.6,141.4,75z M106.4,124.9l-0.4-0.3c-0.5-0.4-1.1-0.6-1.7-0.6h-1.2l7.6-20.5
	c2.6-7.5,2.7-9.7,1.1-19.3c-1.1-6.5-4.4-21.8-8-35.2c0.2,0.2,0.4,0.3,0.6,0.5c0.5,0.4,0.9,0.8,1.4,1.2c7.2,6.4,16.9,21.8,16,36.1
	C121.2,100.8,115.8,114.3,106.4,124.9z M108.4,84.7c1.6,9.4,1.4,11-0.9,17.6c-1.8,5.3-6.1,16.4-8.1,21.7h-3.3
	c4.5-30.4,5.7-43,3.2-69.2l-1.2-10.5c0.3,0.2,0.6,0.4,1,0.6C103.3,59.2,107.2,77.6,108.4,84.7z M76.3,124.2
	C64.2,107.5,60,95.5,61.5,81.5c1.3-11.6,7.4-25.8,15.5-33.3c-3.6,10.2-5.7,20.8-6.2,31.6c-0.6,5.6-0.1,11.2,1.5,16.7
	c0.8,2.5,3.4,9.5,6.5,17.6l3.8,10C82.6,124.1,76.3,124.2,76.3,124.2z M86.4,124.1l-4.3-11.3l-6.4-17.3c-1.4-5-1.9-10.2-1.3-15.4V80
	c0.5-11.4,2.8-22.6,6.9-33.2l0.6-1.4c0.1-0.3,0.2-0.6,0.4-0.9c0.4-0.2,0.9-0.4,1.3-0.6c0.8-0.3,1.6-0.6,2.4-0.8
	c-2.2,15.5-3.1,31.2-2.5,46.8c0.4,11.5,2.1,23,4.8,34.2C88.3,124.1,86.4,124.1,86.4,124.1z M90.7,35.2c0.5-2.7,1-4.3,1.3-5.3
	c0.5,1.4,1.1,4,1.9,9c-1.2-0.2-2.4-0.3-3.8-0.2L90.7,35.2z M87.3,34.6c-0.3,1.6-0.5,3.2-0.8,4.8c-0.8,0.2-1.5,0.4-2.4,0.7
	c1.2-2.7,2.4-5.4,3.6-7.6C87.6,33.1,87.4,33.8,87.3,34.6z M91.8,124.1c-2.8-11.2-4.5-22.7-4.9-34.3C86.3,74,87.2,58,89.5,42.4
	c1.8-0.2,3.4-0.1,4.9,0.3l1.4,12.5c2.5,25.9,1.3,38.4-3.2,68.8L91.8,124.1z M97.6,40.1v-0.2V40.1z M46.1,96.5
	c-4.7-6.6-3.4-10.6,1-21.2c4.4-10.5,16.2-30.8,29.5-40.4c3.5-2.5,6.3-4.5,9-5.8c-1.9,3-3.8,7.3-6.2,12.9
	C68.1,48.7,59.6,66.8,58,81.2C56.5,95,60.1,107,70.7,122.5C58.9,111.8,51,103.5,46.1,96.5z M104.5,131.2l-3.3,3.1
	c-0.5,0.5-0.8,1.1-0.8,1.8v10.6c0,1.3,1,2.4,2.3,2.5v0.4H78.2v-0.4h0.1c1.4,0,2.5-1.1,2.5-2.5V136c0-0.7-0.3-1.3-0.8-1.8l-3.3-3.1
	c-0.4-0.3-0.4-0.9-0.1-1.2l0.5-0.6l26.4-0.2l1,0.9c0.2,0.2,0.3,0.4,0.3,0.7C104.8,130.7,104.8,130.9,104.5,131.2L104.5,131.2z
	 M116.2,117.5c5.5-9.2,8.7-19.7,9.1-30.5c1-15.4-9.4-32-17.2-38.9c-0.5-0.4-0.9-0.8-1.4-1.2c-1.6-1.4-3.1-2.7-4.6-3.9
	c-1.4-4.8-2.9-9.1-4.3-12.3c-0.3-0.8-0.7-1.5-1.1-2.2c3.9,1.4,8.4,4.4,14.5,9.6c11.1,9.3,23.5,28.1,26.7,38.1
	c3,9.4,2.2,15.9-2.7,21.1L116.2,117.5z"/>
</svg>
