<?xml version="1.0" encoding="utf-8"?>
<!-- Generator: Adobe Illustrator 27.8.1, SVG Export Plug-In . SVG Version: 6.00 Build 0)  -->
<svg version="1.1" id="Layer_1" xmlns="http://www.w3.org/2000/svg" xmlns:xlink="http://www.w3.org/1999/xlink" x="0px" y="0px"
	 viewBox="0 0 180 180" style="enable-background:new 0 0 180 180;" xml:space="preserve">
<style type="text/css">
	.st0{fill:#F7F0E7;}
</style>
<path class="st0" d="M155.9,56.3h-24.3v-5.4c0-0.7-0.3-1.3-0.7-1.8c-0.5-0.5-1.1-0.7-1.8-0.7L21.7,48.6c-1.4,0-2.5,1.1-2.5,2.5V85
	c0.1,21.3,11.8,40.7,30.6,50.6l2.9,2c0.4,0.3,0.9,0.4,1.4,0.4l42.8-0.1c0.5,0,1-0.2,1.4-0.4l2.9-2c9.1-4.9,16.5-11.9,21.8-20.3
	c13.1-0.3,22.6-3.3,28.3-9c4.2-4.2,6.4-9.8,6.4-16.7V58.1C157.6,57.1,156.8,56.3,155.9,56.3z M131.6,73l8.8-0.7V89
	c0,3.2-1.2,6.8-10,7.5c0.8-3.8,1.2-7.8,1.2-11.8V73z M98.7,131.2c-0.1,0-0.2,0.1-0.2,0.1l-2.4,1.6L54.9,133l-2.4-1.6
	c-0.1-0.1-0.2-0.1-0.2-0.1c-17.2-9.1-28-26.8-28.1-46.3V53.6l102.4-0.2v31.4C126.6,104.3,115.9,122,98.7,131.2z M154.1,89.5
	c0,5.9-1.8,10.7-5.4,14.2c-4.8,4.7-12.8,7.4-23.8,7.9c1.9-3.6,3.4-7.5,4.5-11.4c9.5-0.5,14.4-4.2,14.4-11.1V70.5
	c0-0.5-0.2-1-0.6-1.3s-0.8-0.5-1.3-0.5l-10.4,0.8v-9.7H154v29.7H154.1z"/>
</svg>
