<?xml version="1.0" encoding="utf-8"?>
<!-- Generator: Adobe Illustrator 27.8.1, SVG Export Plug-In . SVG Version: 6.00 Build 0)  -->
<svg version="1.1" id="Layer_1" xmlns="http://www.w3.org/2000/svg" xmlns:xlink="http://www.w3.org/1999/xlink" x="0px" y="0px"
	 viewBox="0 0 180 180" style="enable-background:new 0 0 180 180;" xml:space="preserve">
<style type="text/css">
	.st0{fill:#F7F0E7;}
</style>
<path class="st0" d="M149.4,113.6c12.4-14.2,12.3-35.1,0-49.3c-1.2-18.9-16.1-33.8-35-35c-14.2-12.6-35.3-12.6-49.6,0
	c-18.7,1.2-33.7,16.2-34.9,34.9c-12.7,14.3-12.7,35.4,0,49.7c1.2,18.9,16.1,33.8,35,35c7.1,6.2,15.9,9.3,24.7,9.3s17.6-3.1,24.7-9.3
	C133.3,147.6,148.2,132.7,149.4,113.6z M119.5,136.7c-1.7,3.2-3.9,6-6.6,8.5l-0.1,0.1h-0.1h-2.5H110c-0.8,0-1.6-0.1-2.4-0.2h-0.2
	c-0.8-0.1-1.5-0.2-2.3-0.4c-0.2,0-0.3-0.1-0.5-0.1c-0.7-0.2-1.4-0.3-2.1-0.5c-0.2-0.1-0.4-0.1-0.6-0.2c-0.7-0.2-1.4-0.4-2-0.7
	c-0.2-0.1-0.4-0.2-0.6-0.2c-0.7-0.3-1.3-0.6-2-0.9c-0.2-0.1-0.3-0.2-0.4-0.2l-1.8-0.9c-0.2-0.1-0.3-0.2-0.5-0.3l-1.8-1.2
	c-0.1-0.1-0.2-0.1-0.3-0.2c0.5-0.4,0.9-0.8,1.3-1.3c0.5-0.5,1-1,1.5-1.6l0.2-0.2c0.4-0.5,0.8-0.9,1.2-1.4c0.1-0.2,0.2-0.3,0.3-0.5
	l0.9-1.2c0.1-0.2,0.3-0.4,0.4-0.6c0.3-0.4,0.5-0.8,0.8-1.2c0.1-0.2,0.3-0.5,0.4-0.7c0.2-0.4,0.4-0.7,0.7-1.1
	c0.1-0.2,0.3-0.5,0.4-0.7c0.2-0.4,0.4-0.7,0.6-1.1c0.1-0.3,0.2-0.5,0.4-0.8c0.2-0.4,0.3-0.8,0.5-1.1c0.1-0.3,0.2-0.6,0.3-0.8
	s0.2-0.4,0.3-0.7l3-1.2c0.2,0.1,0.5,0.2,0.8,0.3c0.2,0.1,0.4,0.2,0.7,0.3c0.4,0.2,0.9,0.3,1.3,0.5c0.2,0.1,0.4,0.2,0.6,0.2
	c0.5,0.2,0.9,0.3,1.4,0.4c0.2,0.1,0.4,0.1,0.6,0.2c0.5,0.1,1,0.3,1.5,0.4c0.2,0,0.3,0.1,0.5,0.1l1.6,0.3c0.1,0,0.3,0.1,0.4,0.1
	l1.8,0.3h0.2c1.4,0.2,2.8,0.2,4.2,0.2h2C122.4,130,121.2,133.5,119.5,136.7L119.5,136.7z M84.5,140.6c0,0-0.1,0-0.1,0.1
	c-1.5,0.9-3.1,1.7-4.8,2.3h-0.1l-2.5,0.9c-3.4,1-6.9,1.5-10.5,1.4h-0.2l-0.2-0.2c-0.6-0.6-1.2-1.1-1.7-1.7c-0.1-0.1-0.1-0.2-0.2-0.2
	c-0.6-0.6-1.1-1.3-1.6-1.9v-0.1c-0.5-0.7-1-1.3-1.4-2c-0.1-0.1-0.1-0.2-0.2-0.3l-1.2-2.1c-0.1-0.1-0.1-0.2-0.2-0.4
	c-0.4-0.7-0.7-1.4-1-2.1c0-0.1-0.1-0.2-0.1-0.3l-0.9-2.3v-0.1c-0.3-0.8-0.5-1.6-0.7-2.4c0-0.1,0-0.1-0.1-0.2
	c-0.2-0.8-0.4-1.6-0.5-2.4v-0.2h1.9h0.1c0.7,0,1.3,0,2-0.1c0.3,0,0.5,0,0.8-0.1c0.4,0,0.9-0.1,1.3-0.1c0.3,0,0.6-0.1,0.9-0.1
	c0.4-0.1,0.8-0.1,1.1-0.2s0.6-0.1,1-0.2s0.7-0.1,1.1-0.2c0.3-0.1,0.7-0.2,1-0.2c0.3-0.1,0.7-0.2,1-0.3s0.7-0.2,1-0.3s0.6-0.2,1-0.3
	c0.3-0.1,0.7-0.2,1-0.4c0.3-0.1,0.6-0.2,0.9-0.4c0.3-0.1,0.6-0.3,1-0.4c0.2-0.1,0.4-0.2,0.6-0.2c1.1,0.5,2.1,0.9,3.2,1.3
	c0.1,0.2,0.2,0.5,0.3,0.7s0.2,0.5,0.3,0.7c0.2,0.4,0.3,0.8,0.5,1.2c0.1,0.2,0.2,0.5,0.3,0.7l0.6,1.2c0.1,0.2,0.2,0.5,0.4,0.7
	c0.2,0.4,0.4,0.8,0.7,1.1c0.1,0.2,0.3,0.4,0.4,0.7c0.2,0.4,0.5,0.7,0.7,1.1c0.1,0.2,0.3,0.4,0.4,0.6l0.8,1.1
	c0.1,0.2,0.3,0.4,0.4,0.6c0.3,0.4,0.6,0.8,0.9,1.1c0.1,0.2,0.3,0.3,0.4,0.5c0.4,0.5,0.9,1,1.3,1.4l0.1,0.1l0.1,0.1L87,139l-0.1,0.1
	C86.2,139.7,85.4,140.2,84.5,140.6L84.5,140.6z M49.5,121.9c-0.1,0-0.1,0-0.2-0.1c-0.8-0.2-1.6-0.4-2.4-0.7h-0.1l-2.3-0.9
	c-0.1,0-0.2-0.1-0.3-0.1c-0.8-0.3-1.5-0.7-2.2-1.1c-0.1-0.1-0.2-0.1-0.3-0.2l-2.1-1.2c-0.1,0-0.1-0.1-0.2-0.1
	c-1.4-0.9-2.8-2-4.1-3.1l-0.1-0.1l-1.8-1.8l-0.1-0.1v-0.1v-2.6v-0.1c0.1-1.8,0.3-3.5,0.7-5.2v-0.2l0.6-2.4c0-0.1,0.1-0.2,0.1-0.3
	c0.2-0.8,0.5-1.6,0.8-2.3c0-0.1,0.1-0.2,0.1-0.2c0.3-0.8,0.7-1.6,1-2.3c0.4-0.8,0.8-1.5,1.2-2.3c0-0.1,0.1-0.1,0.1-0.2
	c0.4-0.7,0.9-1.4,1.3-2.1c0-0.1,0.1-0.1,0.1-0.2c0.4,0.5,0.9,0.9,1.3,1.4c1.9,1.9,3.9,3.6,6.2,5c0,0,0.1,0,0.1,0.1
	c0.5,0.3,1,0.7,1.6,1l0.1,0.1c0.5,0.3,1.1,0.6,1.6,0.9c0.1,0,0.1,0.1,0.2,0.1c0.5,0.3,1.1,0.5,1.6,0.8c0.1,0,0.1,0,0.2,0.1
	c0.3,0.1,0.7,0.3,1,0.4c0.5,1.4,1.2,2.8,1.9,4.2c-0.1,0.2-0.1,0.3-0.2,0.5c-0.1,0.3-0.3,0.6-0.4,0.9l-0.3,0.9l-0.3,0.9
	c-0.1,0.3-0.2,0.7-0.3,1l-0.3,0.9c-0.1,0.3-0.2,0.7-0.2,1c-0.1,0.3-0.1,0.6-0.2,0.9s-0.1,0.7-0.2,1s-0.1,0.6-0.2,0.9
	c-0.1,0.4-0.1,0.7-0.1,1.1c0,0.3-0.1,0.6-0.1,0.9c0,0.4-0.1,0.8-0.1,1.2c0,0.2,0,0.5-0.1,0.7c0,0.6-0.1,1.3-0.1,1.9v1.9h-0.2
	C51.1,122.3,50.3,122.1,49.5,121.9L49.5,121.9z M38,83.9c-0.9-1.6-1.7-3.2-2.4-4.9l-0.9-2.5v-0.1c-1-3.5-1.5-7.1-1.4-10.8
	c5-5.3,11.5-8.8,18.7-10h0.1c0,0.6-0.1,1.3-0.1,1.9c0,3.5,0.5,7,1.4,10.3c0.2,0.5,0.3,1.1,0.5,1.6v0.1l0.6,1.5v0.1
	C53.7,73,53,75,52.4,77c-0.1,0-0.1,0-0.2,0.1c-0.5,0.2-0.9,0.4-1.3,0.6c-0.1,0-0.2,0.1-0.3,0.1c-0.4,0.2-0.9,0.5-1.3,0.7
	c-0.1,0-0.1,0.1-0.2,0.1c-0.5,0.2-0.9,0.5-1.3,0.8c-0.1,0-0.1,0.1-0.2,0.1c-0.5,0.3-0.9,0.6-1.3,0.9h-0.1c-1.9,1.3-3.7,2.8-5.4,4.5
	l-1.3,1.3l-0.1-0.1C38.9,85.4,38.4,84.7,38,83.9z M56.7,49c0-0.1,0-0.2,0.1-0.2c0.2-0.8,0.4-1.6,0.7-2.4v-0.1l0.9-2.3
	c0-0.1,0.1-0.2,0.1-0.3c0.3-0.8,0.7-1.5,1.1-2.2c0.1-0.1,0.1-0.2,0.2-0.3l1.2-2.1c0-0.1,0.1-0.2,0.1-0.2c0.9-1.4,2-2.8,3.1-4.1
	l0.1-0.1c0.6-0.6,1.1-1.2,1.8-1.8l0.1-0.1h0.4h2.1h0.6c0.7,0,1.3,0.1,2,0.2c0.2,0,0.3,0,0.5,0.1c0.7,0.1,1.4,0.2,2.1,0.4
	c0.2,0,0.4,0.1,0.6,0.1c0.7,0.2,1.4,0.3,2.2,0.6c0.2,0.1,0.4,0.1,0.5,0.2c0.7,0.2,1.4,0.5,2.1,0.7c0.1,0.1,0.3,0.1,0.4,0.2
	c0.7,0.3,1.5,0.6,2.2,1c0.1,0,0.1,0.1,0.2,0.1c0.7,0.4,1.4,0.7,2.1,1.1c0.1,0,0.1,0.1,0.2,0.1c0.7,0.4,1.4,0.9,2.1,1.3
	c0.1,0,0.1,0.1,0.2,0.1c-0.5,0.4-0.9,0.9-1.4,1.3c-2.1,2.1-3.9,4.4-5.4,6.8c-0.3,0.5-0.6,1-0.8,1.4c0,0,0,0.1-0.1,0.1
	c-0.3,0.5-0.5,0.9-0.7,1.4c0,0.1-0.1,0.1-0.1,0.2c-0.1,0.2-0.2,0.5-0.4,0.7c-2.4,0.7-4.7,1.7-6.9,2.9c-0.2-0.1-0.3-0.1-0.5-0.2
	s-0.5-0.2-0.7-0.3L68.8,53c-0.2-0.1-0.5-0.2-0.7-0.2c-0.3-0.1-0.6-0.2-0.9-0.2c-0.2-0.1-0.5-0.1-0.7-0.2c-0.3-0.1-0.6-0.1-0.9-0.2
	c-0.2-0.1-0.5-0.1-0.7-0.2c-0.3-0.1-0.6-0.1-1-0.2c-0.2,0-0.5-0.1-0.7-0.1c-0.3,0-0.7-0.1-1-0.1c-0.2,0-0.5-0.1-0.7-0.1
	c-0.4,0-0.8-0.1-1.1-0.1h-0.6h-1.7h-1.9v-0.2C56.3,50.6,56.5,49.8,56.7,49L56.7,49z M92.6,38.8c0.6-0.5,1.3-0.9,2-1.3
	c0.1-0.1,0.2-0.1,0.3-0.2c0.6-0.4,1.2-0.7,1.9-1c0.1-0.1,0.3-0.1,0.4-0.2c0.6-0.3,1.3-0.6,1.9-0.8c0.2-0.1,0.5-0.2,0.7-0.3
	c0.6-0.2,1.2-0.4,1.9-0.6l0.9-0.3c0.6-0.2,1.2-0.3,1.9-0.5c0.3-0.1,0.6-0.1,0.9-0.2l1.5-0.3c0.4-0.1,0.9-0.1,1.3-0.2
	c0.5-0.1,0.9-0.1,1.4-0.1c0.4,0,0.8-0.1,1.2-0.1h1.6h0.6l0.4,0.4l1.4,1.4l0.6,0.6c0.4,0.4,0.7,0.8,1,1.2c0.2,0.3,0.4,0.5,0.6,0.8
	c0.4,0.5,0.7,1,1,1.4c0.1,0.2,0.3,0.4,0.4,0.7c0.4,0.6,0.7,1.2,1,1.7c0.1,0.2,0.2,0.4,0.4,0.7c0.3,0.6,0.6,1.2,0.9,1.9l0.3,0.6
	c0.3,0.7,0.5,1.3,0.8,2c0.1,0.2,0.1,0.3,0.2,0.5c0.2,0.6,0.4,1.3,0.6,2c0,0.2,0.1,0.3,0.1,0.5c0.2,0.7,0.3,1.5,0.5,2.2
	c0,0.1,0,0.2,0.1,0.3h-1.9c-1.2,0-2.4,0.1-3.6,0.2h-0.2c-0.5,0.1-1,0.1-1.6,0.2h-0.3l-1.5,0.3H114l-1.6,0.3h-0.1
	c-0.6,0.1-1.1,0.3-1.7,0.4c-0.9,0.3-1.7,0.5-2.6,0.9c-2.1-1.2-4.3-2.1-6.6-2.8c-0.1-0.2-0.2-0.5-0.3-0.7c0-0.1-0.1-0.2-0.1-0.3
	c-0.2-0.5-0.5-0.9-0.7-1.4c0-0.1-0.1-0.1-0.1-0.2c-0.3-0.5-0.5-1-0.8-1.4c-1.5-2.5-3.3-4.8-5.4-6.9c-0.4-0.4-0.9-0.9-1.4-1.3
	C92.5,38.9,92.5,38.9,92.6,38.8L92.6,38.8z M129.6,56.1c0.1,0,0.2,0,0.2,0.1c0.8,0.2,1.6,0.4,2.4,0.7h0.1l2.3,0.9
	c0.1,0,0.2,0.1,0.3,0.1c0.7,0.3,1.4,0.7,2.1,1c0.1,0.1,0.2,0.1,0.4,0.2c0.7,0.4,1.4,0.8,2,1.2c0.1,0.1,0.2,0.1,0.3,0.2
	c0.7,0.5,1.4,0.9,2,1.4c0,0,0.1,0,0.1,0.1c0.6,0.5,1.3,1,1.9,1.6c0.1,0.1,0.2,0.1,0.2,0.2c0.6,0.5,1.2,1.1,1.7,1.7l0.2,0.2V66v2.2
	v0.5c0,0.7-0.1,1.4-0.2,2.1c0,0.2,0,0.3-0.1,0.5c-0.1,0.7-0.2,1.4-0.4,2.1c0,0.2-0.1,0.4-0.1,0.6c-0.2,0.7-0.3,1.4-0.5,2.1
	c-0.1,0.2-0.1,0.4-0.2,0.6c-0.2,0.7-0.4,1.4-0.7,2c-0.1,0.2-0.2,0.4-0.2,0.6c-0.3,0.7-0.6,1.3-0.9,2c-0.1,0.2-0.2,0.3-0.2,0.5
	c-0.3,0.6-0.6,1.2-0.9,1.7c-0.1,0.2-0.2,0.3-0.3,0.5l-1.2,1.8c-0.1,0.1-0.1,0.2-0.2,0.3c-0.4-0.5-0.8-0.9-1.3-1.3
	c-0.5-0.5-0.9-0.9-1.4-1.3l-0.1-0.1c-0.4-0.4-0.9-0.8-1.4-1.2l-0.3-0.3c-0.4-0.3-0.8-0.6-1.1-0.9c-0.1-0.1-0.3-0.2-0.5-0.3
	c-0.4-0.3-0.7-0.5-1.1-0.7c-0.2-0.1-0.4-0.2-0.5-0.3c-0.3-0.2-0.7-0.4-1-0.6l-0.6-0.3c-0.3-0.2-0.7-0.4-1-0.6l-0.6-0.3
	c-0.3-0.2-0.7-0.3-1-0.5c-0.2-0.1-0.4-0.2-0.7-0.3l-0.6-0.3c-0.6-1.9-1.3-3.8-2.1-5.6c0.1-0.2,0.1-0.4,0.2-0.6s0.2-0.5,0.3-0.7
	c0.1-0.3,0.2-0.7,0.3-1c0.1-0.2,0.2-0.5,0.2-0.7c0.1-0.3,0.2-0.7,0.3-1c0.1-0.2,0.1-0.5,0.2-0.7c0.1-0.4,0.2-0.7,0.3-1.1
	c0-0.2,0.1-0.5,0.1-0.7c0.1-0.4,0.1-0.8,0.2-1.2c0-0.2,0.1-0.4,0.1-0.6c0.1-0.4,0.1-0.8,0.2-1.2c0-0.2,0-0.4,0.1-0.6
	c0-0.5,0.1-0.9,0.1-1.4v-0.4v-1.8v-1.8h0.2C128,55.7,128.8,55.9,129.6,56.1L129.6,56.1z M135.9,90.8c-0.6,0.6-1.2,1.1-1.8,1.7
	c-0.2,0.1-0.3,0.3-0.5,0.4c-0.6,0.5-1.3,1-1.9,1.5h-0.1c-0.6,0.5-1.3,0.9-2,1.3c-0.2,0.1-0.4,0.2-0.5,0.3c-0.7,0.4-1.4,0.8-2.2,1.2
	c1.3-5.3,1.5-10.7,0.6-16l2.1,1.2c0.1,0.1,0.2,0.2,0.4,0.2c1.3,0.8,2.6,1.8,3.9,2.8l0.3,0.3c0.6,0.5,1.2,1.1,1.8,1.6
	c0.5,0.5,1,1,1.5,1.6l0.1,0.1c0,0-0.1,0.1-0.1,0.2C136.9,89.7,136.4,90.3,135.9,90.8L135.9,90.8z M121.5,123h-0.4h-0.5h-1.2
	c-0.3,0-0.5,0-0.8-0.1c-0.3,0-0.6,0-0.9-0.1c-0.3,0-0.5-0.1-0.8-0.1s-0.7-0.1-1-0.1c-0.2,0-0.5-0.1-0.7-0.1l-1.5-0.3
	c-0.3-0.1-0.5-0.1-0.7-0.2c-0.3-0.1-0.6-0.2-0.9-0.2c-0.3-0.1-0.5-0.1-0.8-0.2l-0.9-0.3c-0.2-0.1-0.5-0.2-0.7-0.2h-0.1
	c4.9-2.9,9-6.9,12.1-11.6c0,0.1,0.1,0.1,0.1,0.2s0.1,0.2,0.1,0.4c0.1,0.4,0.3,0.9,0.4,1.3c0,0.1,0.1,0.3,0.1,0.4
	c0.1,0.5,0.3,1,0.4,1.4c0,0.1,0,0.1,0.1,0.2l0.3,1.8v0.1c0.1,0.6,0.2,1.1,0.2,1.7v0.3c0.1,0.5,0.1,1,0.1,1.5v0.2v1.8v0.6v1.4v0.3
	c-0.3,0-0.7,0-1,0.1C122.1,123,121.8,123,121.5,123L121.5,123z M100.6,121.2C100.6,121.2,100.5,121.2,100.6,121.2
	c-7.1,2.4-14.7,2.4-21.9,0.1c-1.5-0.5-3-1.1-4.4-1.7c-6.7-3.2-12.1-8.3-15.6-14.8c-0.9-1.7-1.7-3.4-2.3-5.2
	c-2.4-6.7-2.6-13.9-0.8-20.8c0.6-2.4,1.5-4.7,2.6-6.8v-0.1c3.1-6.1,7.9-11.1,13.9-14.5c2.4-1.4,4.9-2.5,7.6-3.2h0.1
	c6.5-1.9,13.4-1.8,19.9,0.1h0.2c2.5,0.8,4.9,1.8,7.2,3.1c6,3.5,10.8,8.6,13.9,14.8c1,2.1,1.9,4.2,2.5,6.4c1.9,7,1.6,14.3-0.8,21.1
	c-0.6,1.7-1.3,3.3-2.2,4.9c-3.6,6.5-9,11.7-15.7,14.9C103.3,120.2,102,120.7,100.6,121.2z M98.1,125.7l-0.3,0.6
	c-0.2,0.3-0.3,0.7-0.5,1l-0.3,0.6c-0.2,0.4-0.4,0.7-0.6,1c-0.1,0.2-0.2,0.3-0.3,0.5c-0.3,0.5-0.6,0.9-0.9,1.4
	c-0.1,0.2-0.2,0.3-0.4,0.5c-0.2,0.3-0.5,0.6-0.7,0.9c-0.1,0.2-0.3,0.4-0.4,0.6c-0.2,0.3-0.5,0.6-0.7,0.8s-0.3,0.4-0.5,0.5
	c-0.3,0.3-0.6,0.7-1,1c-0.1,0.1-0.1,0.2-0.2,0.2c-0.5,0.5-1,1-1.6,1.5l-0.1,0.1l-0.1-0.1c-0.5-0.4-1-0.9-1.5-1.4l-0.1-0.1
	c-0.4-0.4-0.8-0.8-1.2-1.3c-0.1-0.1-0.2-0.3-0.4-0.4c-0.3-0.3-0.5-0.6-0.8-0.9c-0.1-0.2-0.3-0.3-0.4-0.5c-0.3-0.3-0.5-0.7-0.8-1
	c-0.1-0.1-0.2-0.3-0.3-0.4c-0.3-0.5-0.6-0.9-0.9-1.4c-0.1-0.2-0.2-0.3-0.3-0.5c-0.2-0.3-0.4-0.7-0.6-1l-0.3-0.6
	c-0.2-0.3-0.3-0.6-0.5-1l-0.3-0.6c0-0.1-0.1-0.1-0.1-0.2c5.6,1.3,11.4,1.2,17.1-0.1L98.1,125.7L98.1,125.7z M69.3,121
	c-0.1,0-0.2,0.1-0.3,0.1c-0.5,0.2-0.9,0.3-1.4,0.4c-0.2,0-0.3,0.1-0.5,0.1c-0.5,0.1-0.9,0.2-1.4,0.4c-0.1,0-0.2,0.1-0.4,0.1
	c-0.6,0.1-1.2,0.2-1.7,0.4h-0.2c-0.5,0.1-1,0.2-1.5,0.2c-0.2,0-0.3,0-0.5,0.1c-0.4,0-0.9,0.1-1.3,0.1h-0.5c-0.6,0-1.2,0.1-1.7,0.1
	c-0.6,0-1.3,0-1.9-0.1h-0.4v-0.2c0-0.7-0.1-1.4-0.1-2.1v-1.7v-0.5c0-0.4,0.1-0.8,0.1-1.2c0-0.2,0-0.3,0.1-0.5
	c0.1-0.5,0.1-0.9,0.2-1.4V115l0.3-1.7c0-0.1,0.1-0.2,0.1-0.4c0.1-0.4,0.2-0.9,0.3-1.3c0-0.2,0.1-0.3,0.1-0.5
	c0.1-0.4,0.3-0.9,0.4-1.3c0-0.1,0.1-0.2,0.1-0.3s0-0.1,0.1-0.2c3.1,4.7,7.2,8.5,12.1,11.4C69.5,121,69.4,121,69.3,121L69.3,121z
	 M49.5,95.7c-1.4-0.9-2.8-1.9-4.1-3c-0.1-0.1-0.2-0.1-0.3-0.2c-0.6-0.6-1.3-1.1-1.9-1.7c-0.5-0.5-1-1.1-1.5-1.6l-0.1-0.1
	c0.1-0.1,0.1-0.2,0.2-0.3l0.5-0.5c0.3-0.3,0.6-0.6,0.8-0.9l0.4-0.4c0.4-0.3,0.7-0.7,1.1-1c0.2-0.2,0.5-0.4,0.7-0.6
	c0.4-0.3,0.7-0.6,1.1-0.9c0.3-0.2,0.7-0.5,1-0.7c0.4-0.3,0.8-0.6,1.2-0.8c0.3-0.2,0.5-0.3,0.8-0.5c0.4-0.2,0.8-0.5,1.2-0.7
	c0.2-0.1,0.4-0.2,0.5-0.3c-0.9,5.2-0.7,10.5,0.6,15.6c-0.8-0.4-1.5-0.8-2.2-1.2C49.6,95.7,49.6,95.7,49.5,95.7z M57.7,55.1H58
	c0.6,0,1.3,0,1.9,0.1c0.3,0,0.6,0,0.8,0.1c0.4,0,0.9,0.1,1.3,0.1c0.2,0,0.5,0,0.7,0.1l1.9,0.3c0.2,0,0.4,0.1,0.6,0.1
	c0.5,0.1,1.1,0.3,1.6,0.4c0.1,0,0.2,0.1,0.3,0.1c-4,2.9-7.5,6.5-10.2,10.6c-0.1-0.2-0.1-0.5-0.2-0.7c-0.1-0.3-0.2-0.6-0.2-0.9
	c-0.1-0.4-0.2-0.7-0.2-1.1c-0.1-0.3-0.1-0.7-0.2-1l-0.3-1.8c0-0.3-0.1-0.6-0.1-0.9c0-0.4-0.1-0.8-0.1-1.2v-1v-0.9v-1.6v-0.3v-0.4
	h0.3C56.5,55.1,57.1,55.1,57.7,55.1z M87.9,42.7c0.5-0.5,1.1-1.1,1.7-1.6c0.6,0.5,1.1,1,1.7,1.6c2.1,2.1,4,4.6,5.5,7.2
	c-2.4-0.5-4.9-0.7-7.4-0.7c-2.3,0-4.7,0.2-7,0.6C84,47.2,85.8,44.9,87.9,42.7z M111.8,56.3c3-0.9,6.1-1.3,9.3-1.3
	c0.8,0,1.6,0,2.3,0.1v0.2c0,0.7,0.1,1.4,0.1,2.1s0,1.5-0.1,2.2v0.5c-0.1,0.7-0.1,1.3-0.2,2v0.2c-0.1,0.7-0.2,1.5-0.4,2.2
	c0,0.2-0.1,0.3-0.1,0.5c-0.1,0.6-0.3,1.2-0.5,1.9c0,0.1,0,0.2-0.1,0.2C119.4,62.9,115.9,59.3,111.8,56.3z M127,122.5v-0.4v-1.5
	c0-1.1-0.1-2.3-0.2-3.4v-0.6c0-0.4-0.1-0.8-0.2-1.2c0-0.3-0.1-0.5-0.1-0.8c-0.1-0.4-0.1-0.8-0.2-1.1s-0.1-0.6-0.2-0.9
	c-0.1-0.4-0.2-0.7-0.2-1.1c-0.1-0.3-0.1-0.6-0.2-0.9s-0.2-0.7-0.3-1l-0.3-0.9l-0.3-0.9c-0.1-0.3-0.2-0.7-0.4-1l-0.3-0.9
	c-0.1-0.2-0.2-0.4-0.2-0.6c0.6-1.2,1.2-2.5,1.7-3.8l0.6-0.3c0.3-0.1,0.6-0.2,0.8-0.3c0.4-0.1,0.7-0.3,1-0.5c0.3-0.1,0.5-0.3,0.8-0.4
	c0.3-0.2,0.7-0.3,1-0.5c0.3-0.1,0.5-0.3,0.8-0.4c0.3-0.2,0.6-0.4,1-0.6c0.2-0.2,0.5-0.3,0.7-0.5c0.3-0.2,0.6-0.4,1-0.7
	c0.2-0.2,0.5-0.3,0.7-0.5c0.3-0.2,0.7-0.5,1-0.7c0.2-0.2,0.4-0.3,0.6-0.5c0.4-0.3,0.7-0.6,1-0.9c0.2-0.1,0.3-0.3,0.5-0.4
	c0.5-0.4,1-0.9,1.4-1.4c0.4-0.4,0.9-0.9,1.3-1.4c0,0.1,0.1,0.1,0.1,0.2c0.5,0.7,0.9,1.4,1.3,2.1l0.1,0.1c0.9,1.5,1.6,3,2.3,4.6
	c0,0.1,0.1,0.1,0.1,0.2c0.3,0.8,0.6,1.5,0.8,2.3c0,0.1,0.1,0.2,0.1,0.3l0.6,2.4v0.2c0.4,1.7,0.6,3.4,0.7,5.2v0.1
	c0,0.9,0.1,1.7,0,2.6v0.1C140.9,117.6,134.2,121.2,127,122.5L127,122.5z M149.3,108v-0.2l-0.3-2c0-0.3-0.1-0.5-0.1-0.8
	c-0.1-0.6-0.2-1.2-0.4-1.9c0-0.2-0.1-0.4-0.1-0.6c-0.1-0.6-0.3-1.2-0.5-1.8c-0.1-0.2-0.1-0.5-0.2-0.7c-0.2-0.7-0.4-1.3-0.7-2
	c-0.1-0.1-0.1-0.3-0.2-0.4c-0.2-0.6-0.5-1.1-0.7-1.7l-0.3-0.6c-0.3-0.6-0.6-1.3-1-1.9c-0.1-0.1-0.2-0.2-0.2-0.4
	c-0.3-0.5-0.6-1-0.9-1.6l-0.3-0.6l-1.2-1.8l-0.1-0.1c0.5-0.7,1-1.4,1.4-2.1c0-0.1,0.1-0.1,0.1-0.2c0.9-1.4,1.7-2.8,2.4-4.3
	c0-0.1,0.1-0.1,0.1-0.2c0.7-1.5,1.3-3,1.7-4.6c0-0.1,0.1-0.2,0.1-0.3c0.5-1.5,0.8-3.1,1.1-4.7v-0.3l0.3-2.4
	C157.1,81.5,157.1,96.5,149.3,108L149.3,108z M145.3,60.4c-0.6-0.5-1.2-1-1.8-1.4c-0.1-0.1-0.3-0.2-0.4-0.3
	c-1.2-0.9-2.5-1.7-3.9-2.5c-0.2-0.1-0.3-0.2-0.5-0.3c-0.7-0.4-1.3-0.7-2-1c-0.1,0-0.1-0.1-0.2-0.1c-0.6-0.3-1.3-0.6-2-0.8
	c-0.2-0.1-0.3-0.1-0.5-0.2c-0.7-0.3-1.4-0.5-2.2-0.7c-0.1,0-0.2-0.1-0.3-0.1c-0.7-0.2-1.3-0.4-2-0.5c-0.2,0-0.3-0.1-0.5-0.1
	c-0.7-0.2-1.5-0.3-2.3-0.4h-0.1v-0.1c-0.1-0.8-0.3-1.6-0.4-2.3c0-0.1-0.1-0.2-0.1-0.3l-0.6-2.3v-0.1c-0.2-0.8-0.5-1.6-0.8-2.3
	c0-0.1-0.1-0.2-0.1-0.3c-0.6-1.5-1.2-3-2-4.5c0-0.1-0.1-0.1-0.1-0.2c-0.8-1.5-1.7-2.9-2.7-4.3v-0.1c-0.5-0.7-1-1.4-1.6-2
	C132,35.9,142.7,46.6,145.3,60.4L145.3,60.4z M108.7,29.4l-2.5,0.3h-0.1c-1.6,0.3-3.3,0.6-4.8,1.1c-0.1,0-0.2,0-0.2,0.1
	c-1.5,0.5-3.1,1-4.5,1.7c-0.1,0.1-0.2,0.1-0.3,0.2c-0.7,0.3-1.4,0.7-2.1,1.1c-0.1,0-0.1,0.1-0.2,0.1c-0.6,0.3-1.3,0.7-1.9,1.1
	c-0.1,0.1-0.3,0.2-0.4,0.3c-0.6,0.4-1.3,0.8-1.9,1.3l-0.1,0.1l-0.1-0.1c-0.6-0.4-1.2-0.9-1.8-1.3c-0.2-0.1-0.3-0.2-0.5-0.3
	c-0.6-0.4-1.2-0.7-1.8-1c-0.1,0-0.2-0.1-0.3-0.2c-0.7-0.4-1.4-0.7-2.1-1c-0.1-0.1-0.3-0.1-0.4-0.2c-1.4-0.7-2.9-1.2-4.5-1.7
	c-0.1,0-0.2-0.1-0.3-0.1c-1.6-0.5-3.1-0.8-4.8-1.1h-0.3l-2.5-0.3C82,21.4,97.2,21.4,108.7,29.4L108.7,29.4z M60.8,33.4
	c-0.5,0.6-1,1.2-1.4,1.8c-0.1,0.2-0.3,0.4-0.4,0.5l-1.2,1.8c0,0.1-0.1,0.1-0.1,0.2c-0.4,0.6-0.7,1.2-1.1,1.8
	c-0.1,0.2-0.2,0.4-0.3,0.5c-0.3,0.7-0.7,1.3-1,2c0,0.1-0.1,0.2-0.1,0.3c-0.3,0.6-0.5,1.2-0.8,1.9c-0.1,0.2-0.1,0.4-0.2,0.5
	c-0.3,0.7-0.5,1.4-0.7,2.1c0,0.1-0.1,0.2-0.1,0.4c-0.2,0.6-0.3,1.3-0.5,1.9c0,0.2-0.1,0.4-0.1,0.5c-0.2,0.7-0.3,1.5-0.4,2.2v0.1
	h-0.2c-0.7,0.1-1.4,0.2-2.1,0.4c-0.3,0.1-0.5,0.1-0.8,0.2c-0.5,0.1-1,0.2-1.5,0.4c-0.2,0.1-0.5,0.1-0.7,0.2l-1.8,0.6
	c-0.3,0.1-0.6,0.2-0.9,0.4c-0.4,0.1-0.8,0.3-1.1,0.5c-0.5,0.2-1,0.4-1.5,0.7c-0.3,0.2-0.7,0.3-1,0.5c-0.4,0.2-0.7,0.4-1.1,0.6
	c-0.2,0.1-0.5,0.3-0.7,0.4c-0.6,0.4-1.3,0.8-1.9,1.2c-0.2,0.1-0.4,0.2-0.5,0.4c-0.4,0.3-0.8,0.6-1.2,0.8l-0.3,0.3l-1.2,0.9
	C36.5,46.6,47.2,36,60.8,33.4z M29.9,69.8c0,0.2,0.1,0.5,0.1,0.7c0,0.5,0.1,0.9,0.2,1.4c0,0.4,0.1,0.7,0.2,1
	c0.1,0.4,0.2,0.9,0.2,1.3c0.1,0.4,0.2,0.9,0.3,1.3c0.1,0.5,0.2,1,0.4,1.4l0.3,0.9c0.2,0.5,0.3,1.1,0.5,1.6l0.3,0.9l0.6,1.5
	c0.1,0.3,0.2,0.5,0.4,0.8l0.9,1.8l0.3,0.6l0.9,1.5c0.1,0.2,0.3,0.4,0.4,0.6l1.2,1.8c0,0,0.1,0.1,0.1,0.2c0,0,0,0.1-0.1,0.1
	c-0.4,0.6-0.9,1.2-1.3,1.9c-0.1,0.2-0.2,0.3-0.3,0.5c-0.3,0.5-0.7,1.1-1,1.7c-0.1,0.1-0.1,0.2-0.2,0.4c-0.4,0.6-0.7,1.3-1,2L33,96.3
	c-0.3,0.6-0.5,1.2-0.8,1.8c0,0.1-0.1,0.2-0.1,0.3c-0.3,0.7-0.5,1.4-0.7,2.1c-0.1,0.2-0.1,0.4-0.2,0.7c-0.2,0.7-0.4,1.3-0.5,2
	c0,0.1-0.1,0.3-0.1,0.4c-0.1,0.6-0.3,1.3-0.4,1.9c0,0.2-0.1,0.5-0.1,0.7l-0.3,2.1v0.1C21.9,96.6,21.9,81.4,29.9,69.8z M33.9,117.7
	C33.9,117.8,33.9,117.8,33.9,117.7c0.6,0.5,1.2,1,1.8,1.4c0.2,0.1,0.4,0.3,0.5,0.4c0.6,0.4,1.1,0.8,1.7,1.2c0.1,0.1,0.2,0.1,0.2,0.2
	c0.6,0.4,1.2,0.7,1.8,1.1l0.6,0.3c0.7,0.3,1.3,0.7,2,1c0.1,0,0.2,0.1,0.2,0.1c0.6,0.3,1.2,0.5,1.9,0.8c0.2,0.1,0.4,0.1,0.5,0.2
	c0.7,0.3,1.4,0.5,2.1,0.7c0.1,0,0.2,0.1,0.3,0.1c0.6,0.2,1.3,0.3,2,0.5c0.2,0,0.3,0.1,0.5,0.1c0.7,0.2,1.5,0.3,2.2,0.4h0.1v0.1
	c0.1,0.7,0.2,1.5,0.4,2.2c0,0.2,0.1,0.4,0.1,0.6c0.1,0.6,0.3,1.3,0.5,1.9c0,0.1,0.1,0.2,0.1,0.4c0.2,0.7,0.5,1.4,0.7,2.1
	c0.1,0.2,0.1,0.4,0.2,0.6c0.2,0.6,0.5,1.3,0.8,1.9c0,0.1,0.1,0.2,0.1,0.2c0.3,0.7,0.6,1.4,1,2c0.1,0.2,0.2,0.3,0.3,0.5
	c0.4,0.7,0.7,1.3,1.1,2v0.1l1.3,1.9c0.1,0.2,0.2,0.3,0.3,0.5c0.5,0.6,0.9,1.2,1.4,1.8C47.2,142.2,36.4,131.5,33.9,117.7z
	 M70.5,148.7L70.5,148.7l2.3-0.3c0.2,0,0.3,0,0.5-0.1c0.7-0.1,1.4-0.3,2.2-0.4c0.2,0,0.3-0.1,0.5-0.1c0.7-0.2,1.3-0.3,2-0.5
	c0.1,0,0.2,0,0.2-0.1c0.7-0.2,1.4-0.5,2.1-0.7c0.2-0.1,0.4-0.1,0.5-0.2c0.7-0.3,1.3-0.5,2-0.8c0.2-0.1,0.3-0.1,0.4-0.2
	c0.6-0.3,1.2-0.6,1.7-0.9c0.1-0.1,0.3-0.1,0.4-0.2c0.6-0.3,1.3-0.7,1.9-1.1c0.2-0.1,0.3-0.2,0.5-0.3l1.8-1.2c0,0,0.1,0,0.1-0.1
	c0.7,0.5,1.3,1,2,1.4c0.1,0,0.1,0.1,0.2,0.1c0.7,0.4,1.4,0.9,2.1,1.2c0.7,0.4,1.4,0.7,2.1,1.1c0.1,0,0.1,0.1,0.2,0.1l2.1,0.9
	c0.1,0,0.2,0.1,0.4,0.1c0.7,0.3,1.5,0.5,2.2,0.8l2.2,0.6c0.2,0,0.3,0.1,0.5,0.1c0.7,0.2,1.4,0.3,2.2,0.4c0.2,0,0.3,0,0.5,0.1
	c0.7,0.1,1.3,0.2,2,0.2h0.2C97.1,156.6,82,156.6,70.5,148.7L70.5,148.7z M118.2,144.8l0.2-0.2l1.2-1.5c0.2-0.2,0.4-0.4,0.5-0.7
	c0.3-0.4,0.6-0.9,0.9-1.3l0.6-0.9c0.3-0.4,0.5-0.9,0.8-1.4c0.2-0.3,0.3-0.6,0.5-0.8c0.2-0.5,0.5-0.9,0.7-1.4
	c0.2-0.4,0.3-0.7,0.5-1.1s0.4-0.8,0.5-1.3c0.1-0.3,0.2-0.6,0.4-1c0.2-0.5,0.4-1,0.5-1.6l0.3-1.2l0.3-1.2c0.1-0.3,0.2-0.7,0.2-1
	l0.3-1.8c0-0.1,0-0.2,0.1-0.3h0.2c0.7-0.1,1.3-0.2,2-0.4c0.3-0.1,0.6-0.1,0.9-0.2l1.4-0.3c0.3-0.1,0.7-0.2,1-0.3
	c0.6-0.2,1.1-0.4,1.7-0.6c0.3-0.1,0.6-0.2,1-0.4s0.8-0.3,1.2-0.5s0.9-0.4,1.3-0.6l1.2-0.6c0.3-0.2,0.6-0.3,1-0.5s0.7-0.4,1.1-0.6
	c0.5-0.3,0.9-0.6,1.4-0.9l0.9-0.6c0.3-0.2,0.6-0.5,0.9-0.7s0.6-0.5,0.9-0.7c0.2-0.2,0.5-0.4,0.7-0.6
	C142.9,131.5,132.1,142.3,118.2,144.8L118.2,144.8z M103,100.3c-0.7-0.7-1.8-0.7-2.5-0.1c-3,2.8-6.9,4.3-11,4.1
	c-4.1-0.1-7.9-1.9-10.7-4.9s-4.3-6.9-4.1-11c0.1-4.1,1.9-7.9,4.9-10.7s6.9-4.3,11-4.1c4.1,0.1,7.9,1.9,10.7,4.9
	c2.6,2.8,4.1,6.4,4.1,10.2l-2.8-2.9c-0.7-0.7-1.8-0.7-2.5,0s-0.7,1.8,0,2.5c0,0,0,0,0,0l5.7,5.9c0.3,0.3,0.8,0.5,1.3,0.5
	s0.9-0.2,1.3-0.5l5.6-5.7c0.7-0.7,0.7-1.8,0-2.5s-1.8-0.7-2.5,0c0,0,0,0,0,0l-2.5,2.5c-0.1-4.6-1.9-9-5.1-12.3
	c-3.4-3.7-8.1-5.8-13.2-6c-5-0.2-9.8,1.6-13.5,5.1c-3.7,3.4-5.8,8.1-6,13.2s1.6,9.8,5.1,13.5c3.4,3.7,8.1,5.8,13.2,6h0.6
	c4.8,0,9.4-1.8,12.9-5.1C103.6,102.1,103.6,101,103,100.3z"/>
</svg>
